<?xml version="1.0" encoding="UTF-8"?> <svg xmlns="http://www.w3.org/2000/svg" width="400" height="650" fill="none" viewBox="0 0 400 650"><g clip-path="url(#a)"><path fill="#041F49" fill-rule="evenodd" d="M993 608.274 454.537 680l-39.271-28.397c-39.226-28.224-117.775-85.022-166.15-146.019-48.368-60.994-66.557-126.192-54.476-195.24 4.653-26.58 13.786-53.731 22.926-80.877 14.592-43.37 29.187-86.725 25.465-127.708-6.031-66.37-60.09-126.522-87.472-156.994l-.325-.361L128-85.778 775.28-172 993 608.274Z" clip-rule="evenodd"></path><path fill="#05275C" d="m431.566 362.745-19.812-23.09c-19.809-22.962-59.432-69.142-63.206-116.57-3.775-47.429 28.301-96.105 31.698-143.757 3.395-47.654-21.887-94.281-49.564-140.962-27.676-46.68-57.747-93.412-72.785-116.905l-15.036-23.366 188.032-5.884 22.205 23.142c22.21 23.268 66.623 69.55 106.25 115.857 39.628 46.306 74.471 92.636 71.074 140.288-3.396 47.652-45.032 96.628-38.868 143.982 6.164 47.354 60.13 93.084 87.11 115.822l26.981 22.866-274.079 8.577Z"></path></g><defs><clipPath id="a"><path fill="#fff" d="M400 0H0v650h400z"></path></clipPath></defs></svg> 