<?xml version="1.0" encoding="UTF-8"?> <svg xmlns="http://www.w3.org/2000/svg" width="94" height="65" fill="none" viewBox="0 0 94 65"><path fill="url(#a)" d="M91.546 24.182a5.936 5.936 0 0 1-8.394 0l-13.99-13.99A5.94 5.94 0 0 1 71.048.446a5.936 5.936 0 0 1 6.507 1.351l13.991 13.99a5.934 5.934 0 0 1 0 8.395Z"></path><path fill="url(#b)" d="M83.845 24.883c.082.081.165.161.25.237l-.007.008.002.002a7.432 7.432 0 0 1 2.168 5.728l5.84-5.84a5.936 5.936 0 0 0 .14-8.53l-.01.01c-.07-.07-2.148-2.118-5.587-2.806-3.498-.7-4.568-.7-6.296-.7-1.726 0-2.798 0-5.247-.35-2.447-.35-5.254-1.74-5.254-1.74l13.99 13.991.01-.01Z"></path><path fill="url(#c)" d="M55.512 13.818a5.936 5.936 0 0 1 8.394 0l13.99 13.99a5.935 5.935 0 1 1-8.394 8.395l-13.99-13.99a5.936 5.936 0 0 1 0-8.395Z"></path><path fill="url(#d)" d="M63.21 13.118a6.039 6.039 0 0 0-.25-.237l.008-.008-.003-.002a7.431 7.431 0 0 1-2.168-5.728l-5.84 5.84a5.933 5.933 0 0 0-.14 8.53l.01-.01c.07.07 2.148 2.118 5.587 2.806 3.498.7 4.57.7 6.296.7 1.728 0 2.799 0 5.248.35 2.447.35 5.254 1.74 5.254 1.74L63.22 13.108l-.01.01Z"></path><path fill="#02132E" d="M71.228 55.813v8.83h-4.236V49.37h4.037v2.694h.18a4.26 4.26 0 0 1 1.7-2.108c.795-.523 1.76-.785 2.893-.785 1.06 0 1.985.232 2.774.696.789.464 1.402 1.127 1.84 1.989.437.855.656 1.875.656 3.062v9.724h-4.236v-8.968c.007-.935-.232-1.664-.716-2.188-.484-.53-1.15-.795-1.999-.795-.57 0-1.073.122-1.51.368-.432.245-.77.603-1.015 1.074-.239.464-.361 1.024-.368 1.68ZM57.499 64.94c-1.571 0-2.924-.317-4.057-.954a6.537 6.537 0 0 1-2.605-2.724c-.61-1.18-.915-2.575-.915-4.186 0-1.571.305-2.95.915-4.137.61-1.186 1.468-2.11 2.575-2.774 1.114-.663 2.42-.994 3.918-.994a7.97 7.97 0 0 1 2.814.487A6.242 6.242 0 0 1 62.43 51.1c.657.643 1.167 1.452 1.532 2.426.364.968.546 2.101.546 3.4v1.164H51.612v-2.625h8.91c0-.61-.133-1.15-.398-1.62a2.85 2.85 0 0 0-1.104-1.105c-.464-.271-1.004-.407-1.62-.407-.644 0-1.214.149-1.711.447-.49.292-.875.686-1.154 1.184a3.341 3.341 0 0 0-.427 1.64V58.1c0 .756.14 1.408.418 1.959.285.55.686.974 1.203 1.272.517.299 1.13.448 1.84.448.47 0 .9-.066 1.292-.199a2.684 2.684 0 0 0 1.004-.597c.279-.265.49-.59.636-.974l3.918.258a5.349 5.349 0 0 1-1.223 2.466c-.61.696-1.399 1.24-2.366 1.631-.962.385-2.072.577-3.331.577Zm-8.352-15.57-5.34 15.272h-4.772l-5.34-15.273h4.475l3.172 10.928h.159l3.162-10.928h4.484ZM25.819 64.94c-1.571 0-2.923-.317-4.057-.954a6.537 6.537 0 0 1-2.605-2.724c-.61-1.18-.915-2.575-.915-4.186 0-1.571.305-2.95.915-4.137.61-1.186 1.468-2.11 2.575-2.774 1.114-.663 2.42-.994 3.918-.994a7.97 7.97 0 0 1 2.814.487A6.242 6.242 0 0 1 30.75 51.1c.656.643 1.166 1.452 1.531 2.426.365.968.547 2.101.547 3.4v1.164H19.933v-2.625h8.909c0-.61-.133-1.15-.398-1.62a2.85 2.85 0 0 0-1.104-1.105c-.464-.271-1.004-.407-1.62-.407-.643 0-1.214.149-1.71.447a3.13 3.13 0 0 0-1.154 1.184 3.341 3.341 0 0 0-.428 1.64V58.1c0 .756.14 1.408.418 1.959.285.55.686.974 1.203 1.272.517.299 1.13.448 1.84.448.47 0 .901-.066 1.292-.199a2.684 2.684 0 0 0 1.004-.597c.279-.265.49-.59.637-.974l3.917.258a5.349 5.349 0 0 1-1.223 2.466c-.61.696-1.398 1.24-2.366 1.631-.961.385-2.072.577-3.331.577ZM11.922 50.135c-.08-.802-.421-1.425-1.024-1.87-.604-.444-1.422-.666-2.456-.666-.703 0-1.296.1-1.78.299-.484.192-.855.46-1.114.805a1.939 1.939 0 0 0-.378 1.173 1.67 1.67 0 0 0 .23.955c.171.272.407.507.705.706a5.36 5.36 0 0 0 1.034.507c.391.14.809.259 1.253.358l1.83.438a12.91 12.91 0 0 1 2.446.795c.742.331 1.385.74 1.929 1.223a5.083 5.083 0 0 1 1.262 1.71c.305.656.461 1.409.468 2.257-.007 1.246-.325 2.327-.955 3.242-.623.908-1.524 1.614-2.704 2.118-1.174.497-2.589.745-4.246.745-1.644 0-3.076-.252-4.296-.755-1.213-.504-2.16-1.25-2.843-2.237-.676-.995-1.031-2.224-1.064-3.69h4.166c.046.683.242 1.253.587 1.71.35.452.818.793 1.402 1.025.59.225 1.256.338 1.998.338.73 0 1.362-.106 1.9-.318.543-.212.964-.507 1.262-.885.298-.378.447-.812.447-1.303 0-.457-.135-.841-.407-1.153-.265-.312-.656-.577-1.173-.795a11.93 11.93 0 0 0-1.88-.597l-2.217-.557c-1.717-.418-3.072-1.07-4.067-1.959-.994-.888-1.488-2.084-1.481-3.59-.007-1.232.321-2.31.984-3.23.67-.922 1.588-1.641 2.754-2.158C5.661 44.258 6.987 44 8.472 44c1.511 0 2.83.258 3.957.776 1.133.517 2.015 1.236 2.645 2.157.63.922.954 1.989.974 3.202h-4.126ZM41.15 37.96c-1.471 0-2.74-.324-3.808-.974-1.06-.656-1.879-1.57-2.456-2.744-.57-1.18-.855-2.552-.855-4.117 0-1.564.285-2.943.855-4.136.577-1.2 1.38-2.134 2.407-2.804 1.034-.676 2.24-1.014 3.619-1.014.795 0 1.58.133 2.357.398a5.84 5.84 0 0 1 2.117 1.292c.637.59 1.144 1.372 1.522 2.347.377.974.566 2.174.566 3.6v.994H35.702v-2.029h9.386c0-.862-.172-1.63-.517-2.307a3.895 3.895 0 0 0-1.452-1.6c-.623-.392-1.359-.587-2.207-.587-.935 0-1.743.232-2.426.696a4.58 4.58 0 0 0-1.561 1.79 5.258 5.258 0 0 0-.547 2.366v1.352c0 1.154.199 2.132.596 2.934.405.795.965 1.402 1.68 1.82.717.41 1.549.616 2.497.616.616 0 1.173-.087 1.67-.259a3.575 3.575 0 0 0 1.303-.795 3.62 3.62 0 0 0 .845-1.333l2.267.637a5.026 5.026 0 0 1-1.203 2.028c-.564.577-1.26 1.028-2.088 1.352-.829.319-1.76.478-2.794.478Zm-20.327-9.506v9.188h-2.346V17.278h2.346v7.478h.199a4.318 4.318 0 0 1 1.61-1.88c.723-.47 1.684-.706 2.884-.706 1.041 0 1.953.21 2.735.627.782.41 1.388 1.044 1.82 1.899.437.848.656 1.929.656 3.241v9.705H28.38v-9.546c0-1.213-.315-2.15-.945-2.813-.623-.67-1.488-1.005-2.595-1.005-.769 0-1.458.163-2.068.488a3.56 3.56 0 0 0-1.432 1.421c-.345.623-.517 1.38-.517 2.267ZM0 19.466v-2.188h15.273v2.188H8.869v18.176H6.403V19.466H0Z"></path><defs><linearGradient id="a" x1="78.621" x2="119.839" y1="-13.172" y2="42.771" gradientUnits="userSpaceOnUse"><stop offset=".086" stop-color="#28CCB7"></stop><stop offset=".756" stop-color="#80E6D9"></stop></linearGradient><linearGradient id="b" x1="84.202" x2="85.253" y1="29.427" y2="13.689" gradientUnits="userSpaceOnUse"><stop offset=".034" stop-color="#699FF5"></stop><stop offset=".57" stop-color="#1C6FF0"></stop><stop offset="1" stop-color="#0D58CF"></stop></linearGradient><linearGradient id="c" x1="68.436" x2="27.218" y1="51.172" y2="-4.771" gradientUnits="userSpaceOnUse"><stop offset=".086" stop-color="#28CCB7"></stop><stop offset=".756" stop-color="#80E6D9"></stop></linearGradient><linearGradient id="d" x1="62.853" x2="61.803" y1="8.574" y2="24.312" gradientUnits="userSpaceOnUse"><stop offset=".034" stop-color="#699FF5"></stop><stop offset=".57" stop-color="#1C6FF0"></stop><stop offset="1" stop-color="#0D58CF"></stop></linearGradient></defs></svg> 